<svg xmlns="http://www.w3.org/2000/svg" xmlns:xlink="http://www.w3.org/1999/xlink" viewBox="0 0 613.82 111.751"><g><path fill="currentcolor" d="M581.925 39.672c-15.989 0-28.996 13.007-28.996 28.996v11.859c0 15.989 13.007 28.996 28.996 28.996h.014c15.989 0 28.996-13.007 28.996-28.996V68.668c.001-15.988-13.007-28.996-29.01-28.996zm18.687 40.855c0 10.296-8.376 18.672-18.672 18.672h-.014c-10.296 0-18.672-8.376-18.672-18.672V68.668c0-10.296 8.376-18.672 18.687-18.672 10.296 0 18.672 8.376 18.672 18.672v11.859h-.001zM243.969 39.685c-15.78.454-28.144 13.809-28.144 29.596v11.246c0 15.989 13.007 28.996 29.011 28.996h3.83a28.992 28.992 0 0020.748-8.741l2.146-2.198a2.092 2.092 0 00-.035-2.956l-4.395-4.292a2.09 2.09 0 00-2.956.035l-2.146 2.197c-3.544 3.631-8.29 5.63-13.377 5.63h-3.83c-10.312 0-18.672-8.36-18.672-18.672v-.267h45.6a2.084 2.084 0 002.084-2.084v-9.508c-.001-16.27-13.473-29.454-29.864-28.982zm19.539 30.251h-37.36v-1.268c0-10.296 8.376-18.672 18.688-18.672 10.296 0 18.673 8.376 18.673 18.672v1.268h-.001zM200.955 20.08h-6.22a2.084 2.084 0 00-2.084 2.084v66.669l-54.072-68.192a1.517 1.517 0 00-1.178-.561h-4.854a2.084 2.084 0 00-2.084 2.084v85.109a2.09 2.09 0 002.084 2.084h6.22a2.084 2.084 0 002.084-2.084v-66.98l54.072 68.504v-.001c.291.357.72.561 1.178.561h4.854a2.084 2.084 0 002.084-2.084v-85.11a2.083 2.083 0 00-2.084-2.083zM430.543 40.304h-14.292V26.899a2.09 2.09 0 00-2.09-2.09h-6.143a2.09 2.09 0 00-2.09 2.09v13.405h-6.758a2.09 2.09 0 00-2.09 2.09v6.143a2.09 2.09 0 002.09 2.09h6.758v40.824c0 9.777 7.926 17.703 17.703 17.703h6.913a2.09 2.09 0 002.09-2.09v-6.143a2.09 2.09 0 00-2.09-2.09h-6.913a7.38 7.38 0 01-7.38-7.38V50.628h14.292a2.09 2.09 0 002.09-2.09v-6.143a2.09 2.09 0 00-2.09-2.091zM313.938 40.304h-14.292V26.899a2.09 2.09 0 00-2.09-2.09h-6.143a2.09 2.09 0 00-2.09 2.09v13.405h-6.758a2.09 2.09 0 00-2.09 2.09v6.143a2.09 2.09 0 002.09 2.09h6.758v40.824c0 9.777 7.926 17.703 17.703 17.703h6.912a2.09 2.09 0 002.09-2.09v-6.143a2.09 2.09 0 00-2.09-2.09h-6.912a7.38 7.38 0 01-7.38-7.38V50.628h14.292a2.09 2.09 0 002.09-2.09v-6.143a2.09 2.09 0 00-2.09-2.091zM514.884 39.683c-8.491-.152-16.069 3.999-20.848 10.385-4.68-6.299-12.177-10.389-20.616-10.389a25.52 25.52 0 00-15.331 5.097v-2.382a2.09 2.09 0 00-2.09-2.09h-6.143a2.09 2.09 0 00-2.09 2.09v64.67a2.09 2.09 0 002.09 2.09h6.143a2.09 2.09 0 002.09-2.09v-41.73c0-8.643 7.189-15.638 15.915-15.321 8.304.302 14.76 7.383 14.76 15.693v41.358a2.09 2.09 0 002.09 2.09h6.143a2.09 2.09 0 002.09-2.09v-41.73c0-8.642 7.188-15.638 15.914-15.321 8.304.302 14.761 7.383 14.761 15.693v41.359a2.09 2.09 0 002.09 2.09h6.143a2.09 2.09 0 002.09-2.09v-41.73c.001-13.992-11.257-25.402-25.201-25.652zM359.84 39.672h-2.818a28.992 28.992 0 00-20.748 8.741l-2.146 2.198a2.09 2.09 0 00.036 2.956l4.395 4.291a2.09 2.09 0 002.956-.036l2.145-2.198c3.544-3.63 8.289-5.629 13.376-5.629h2.803c9.112 0 15 4.613 15 11.753v5.005H350.73c-11.697 0-23.537 7.222-23.537 21.026 0 14.939 12.201 21.744 23.537 21.744 9.646 0 18.027-4.257 24.109-9.711v7.253a2.09 2.09 0 002.09 2.09h6.143a2.09 2.09 0 002.09-2.09V61.748c.002-10.632-7.923-22.076-25.322-22.076zm-9.109 59.527c-12.261 0-13.214-8.741-13.214-11.42 0-3.975 2.783-10.702 13.214-10.702h24.109v4.94c-.119 3.438-9.701 17.182-24.109 17.182z"></path> <defs><path id="a" d="M3.088 41.122v62.335c0 4.884 5.603 7.645 9.476 4.669l37.246-28.62a5.886 5.886 0 017.168-.005l37.249 28.536c3.874 2.968 9.469.206 9.469-4.674v-62.24c0-1.832-.853-3.56-2.307-4.674L56.972 2.421a5.888 5.888 0 00-7.162 0L5.395 36.448a5.886 5.886 0 00-2.307 4.674z"></path></defs> <clipPath id="b"><use overflow="visible" xlink:href="#a"></use></clipPath> <linearGradient id="c" x1="-9.87" x2="31.427" y1="92.084" y2="50.788" gradientTransform="translate(0 4)" gradientUnits="userSpaceOnUse"><stop offset="0" stop-color="#ff7911"></stop> <stop offset=".565" stop-color="#fe7711"></stop> <stop offset=".769" stop-color="#fb700f"></stop> <stop offset=".913" stop-color="#f5650c"></stop> <stop offset="1" stop-color="#f05909"></stop></linearGradient> <path fill="url(#c)" d="M3.643 38.641a5.88 5.88 0 00-.555 2.48v66.281c0 3.272 3.753 5.121 6.348 3.128l43.956-33.777L3.643 38.641z" clip-path="url(#b)"></path> <linearGradient id="d" x1="-13.714" x2="30.214" y1="89.133" y2="52.273" gradientTransform="translate(0 4)" gradientUnits="userSpaceOnUse"><stop offset=".5" stop-color="#ff8d15" stop-opacity="0"></stop> <stop offset=".67" stop-color="#fe8a14" stop-opacity=".34"></stop> <stop offset=".772" stop-color="#fa8212" stop-opacity=".543"></stop> <stop offset=".855" stop-color="#f3740f" stop-opacity=".711"></stop> <stop offset=".929" stop-color="#ea600a" stop-opacity=".858"></stop> <stop offset=".996" stop-color="#de4603" stop-opacity=".992"></stop> <stop offset="1" stop-color="#dd4403"></stop></linearGradient> <path fill="url(#d)" d="M3.643 38.641a5.88 5.88 0 00-.555 2.48v66.281c0 3.272 3.753 5.121 6.348 3.128l43.956-33.777L3.643 38.641z" clip-path="url(#b)"></path> <path fill="#FF8F15" d="M3.643 38.641l49.749 38.112 49.749-38.112a5.891 5.891 0 00-1.752-2.193L55.991 1.67a4.275 4.275 0 00-5.199 0l-31.91 24.446L5.394 36.448a5.87 5.87 0 00-1.751 2.193z" clip-path="url(#b)"></path> <path fill="#FFA618" d="M53.391 76.753l3.579 2.742.002.001 34.275 26.258 6.105 4.677c2.595 1.988 6.343.138 6.343-3.131V41.122c0-.87-.198-1.713-.555-2.481L53.391 76.753z" clip-path="url(#b)"></path> <linearGradient id="e" x1="78.969" x2="115.549" y1="87.97" y2="61.036" gradientTransform="translate(0 4)" gradientUnits="userSpaceOnUse"><stop offset=".436" stop-color="#ff8f15"></stop> <stop offset=".741" stop-color="#ff9916" stop-opacity=".46"></stop> <stop offset="1" stop-color="#ffa618" stop-opacity="0"></stop></linearGradient> <path fill="url(#e)" d="M53.391 76.753l3.579 2.742.002.001 34.275 26.258 6.105 4.677c2.595 1.988 6.343.138 6.343-3.131V41.122c0-.87-.198-1.713-.555-2.481L53.391 76.753z" clip-path="url(#b)"></path></g></svg>