<svg width="12" height="12" fill="none" xmlns="http://www.w3.org/2000/svg">
<path fill-rule="evenodd" clip-rule="evenodd" d="M9.42624 3.33988C9.6215 3.14462 9.6215 2.82804 9.42624 2.63277C9.23097 2.43751 8.91439 2.43751 8.71913 2.63277L6.02999 5.32191L3.34086 2.63277C3.1456 2.43751 2.82901 2.43751 2.63375 2.63277C2.43849 2.82804 2.43849 3.14462 2.63375 3.33988L5.32289 6.02902L2.63375 8.71815C2.43849 8.91341 2.43849 9.22999 2.63375 9.42526C2.82901 9.62052 3.1456 9.62052 3.34086 9.42526L6.02999 6.73612L8.71913 9.42526C8.91439 9.62052 9.23097 9.62052 9.42624 9.42526C9.6215 9.22999 9.6215 8.91341 9.42624 8.71815L6.7371 6.02902L9.42624 3.33988Z" fill="currentColor"/>
</svg>